<?xml version="1.0" encoding="UTF-8"?>
<svg version="1.1" xmlns="http://www.w3.org/2000/svg" width="96" height="96">
<path d="M0 0 C0.66032227 -0.00350464 1.32064453 -0.00700928 2.00097656 -0.01062012 C4.18825732 -0.01943775 6.37521583 -0.01358837 8.5625 -0.00683594 C10.07942772 -0.00818258 11.59635501 -0.01012311 13.11328125 -0.01263428 C16.29431258 -0.01558558 19.47523169 -0.01128778 22.65625 -0.00195312 C26.73877902 0.00944149 30.82104509 0.00288204 34.90356445 -0.00909805 C38.03647858 -0.01631654 41.16933011 -0.01402879 44.30224609 -0.00884247 C45.80778026 -0.00750594 47.31332007 -0.00915382 48.81884766 -0.01380157 C50.92105212 -0.01886672 53.02282758 -0.01115721 55.125 0 C56.92130859 0.00238678 56.92130859 0.00238678 58.75390625 0.00482178 C61.5625 0.25878906 61.5625 0.25878906 63.5625 2.25878906 C63.80300903 4.24563599 63.80300903 4.24563599 63.78955078 6.70849609 C63.78939972 7.62929962 63.78924866 8.55010315 63.78909302 9.49880981 C63.77877045 10.49468109 63.76844788 11.49055237 63.7578125 12.51660156 C63.7549826 13.53478973 63.75215271 14.55297791 63.74923706 15.60202026 C63.7380177 18.86272807 63.71290996 22.1231639 63.6875 25.38378906 C63.67747247 27.59081635 63.66834623 29.79784794 63.66015625 32.00488281 C63.63807268 37.42294478 63.60457795 42.8408475 63.5625 48.25878906 C65.8725 47.59878906 68.1825 46.93878906 70.5625 46.25878906 C71.43191494 47.49823182 72.28255457 48.75085965 73.125 50.00878906 C73.60066406 50.70488281 74.07632813 51.40097656 74.56640625 52.11816406 C75.5625 54.25878906 75.5625 54.25878906 75.40234375 56.39941406 C74.5625 58.25878906 74.5625 58.25878906 71.5625 60.25878906 C71.83284634 62.69596164 71.83284634 62.69596164 72.5625 65.25878906 C74.0475 66.24878906 74.0475 66.24878906 75.5625 67.25878906 C74.89152328 71.45239355 72.7066606 74.66213258 70.5625 78.25878906 C68.54427083 77.96582031 66.52604167 77.67285156 64.5078125 77.37988281 C62.48109333 77.09035936 62.48109333 77.09035936 60.5625 78.25878906 C59.90477572 81.28813397 59.90477572 81.28813397 59.5625 84.25878906 C55.6025 84.25878906 51.6425 84.25878906 47.5625 84.25878906 C47.0675 80.79378906 47.0675 80.79378906 46.5625 77.25878906 C41.6125 77.75378906 41.6125 77.75378906 36.5625 78.25878906 C36.25256104 77.44692139 35.94262207 76.63505371 35.62329102 75.79858398 C33.8937794 73.15481475 33.8937794 73.15481475 31.75534058 72.78677368 C29.35597414 72.61493076 26.99528752 72.59329397 24.58984375 72.62207031 C23.71099014 72.61169235 22.83213654 72.60131439 21.926651 72.59062195 C19.11737085 72.56088446 16.30940952 72.56432497 13.5 72.57128906 C10.68739 72.56241042 7.87513519 72.54651137 5.06263733 72.51982117 C3.3120775 72.50485036 1.56137914 72.50113548 -0.18922424 72.50959778 C-6.21511621 72.48117285 -6.21511621 72.48117285 -8.4375 70.25878906 C-8.69146729 67.45019531 -8.69146729 67.45019531 -8.69628906 63.82128906 C-8.6997937 63.1609668 -8.70329834 62.50064453 -8.70690918 61.8203125 C-8.71572681 59.63303174 -8.70987743 57.44607323 -8.703125 55.25878906 C-8.70447165 53.74186135 -8.70641217 52.22493405 -8.70892334 50.70800781 C-8.71187464 47.52697648 -8.70757684 44.34605737 -8.69824219 41.16503906 C-8.68684757 37.08251005 -8.69340702 33.00024397 -8.70538712 28.91772461 C-8.71260561 25.78481048 -8.71031786 22.65195895 -8.70513153 19.51904297 C-8.703795 18.0135088 -8.70544288 16.50796899 -8.71009064 15.00244141 C-8.71515579 12.90023694 -8.70744627 10.79846148 -8.69628906 8.69628906 C-8.69469788 7.49875 -8.69310669 6.30121094 -8.69146729 5.06738281 C-8.1788262 -0.60185343 -4.85331826 0.00644867 0 0 Z " fill="#BADDFA" transform="translate(20.4375,11.7412109375)"/>
<path d="M0 0 C0.66032227 -0.00350464 1.32064453 -0.00700928 2.00097656 -0.01062012 C4.18825732 -0.01943775 6.37521583 -0.01358837 8.5625 -0.00683594 C10.07942772 -0.00818258 11.59635501 -0.01012311 13.11328125 -0.01263428 C16.29431258 -0.01558558 19.47523169 -0.01128778 22.65625 -0.00195312 C26.73877902 0.00944149 30.82104509 0.00288204 34.90356445 -0.00909805 C38.03647858 -0.01631654 41.16933011 -0.01402879 44.30224609 -0.00884247 C45.80778026 -0.00750594 47.31332007 -0.00915382 48.81884766 -0.01380157 C50.92105212 -0.01886672 53.02282758 -0.01115721 55.125 0 C56.92130859 0.00238678 56.92130859 0.00238678 58.75390625 0.00482178 C61.5625 0.25878906 61.5625 0.25878906 63.5625 2.25878906 C63.5625 8.19878906 63.5625 14.13878906 63.5625 20.25878906 C39.8025 20.25878906 16.0425 20.25878906 -8.4375 20.25878906 C-8.4375 0.01121102 -8.4375 0.01121102 0 0 Z " fill="#455A64" transform="translate(20.4375,11.7412109375)"/>
<path d="M0 0 C3.96 0 7.92 0 12 0 C12 2.31 12 4.62 12 7 C16.00200378 8.60080151 19.04556236 7.29279692 23 6 C23.86941494 7.23944276 24.72005457 8.49207059 25.5625 9.75 C26.03816406 10.44609375 26.51382813 11.1421875 27.00390625 11.859375 C28 14 28 14 27.83984375 16.140625 C27 18 27 18 24 20 C24.27034634 22.43717258 24.27034634 22.43717258 25 25 C25.99 25.66 26.98 26.32 28 27 C27.32902328 31.19360449 25.1441606 34.40334352 23 38 C20.98177083 37.70703125 18.96354167 37.4140625 16.9453125 37.12109375 C14.91859333 36.8315703 14.91859333 36.8315703 13 38 C12.34227572 41.02934491 12.34227572 41.02934491 12 44 C8.04 44 4.08 44 0 44 C-0.33 41.69 -0.66 39.38 -1 37 C-5.95 37.495 -5.95 37.495 -11 38 C-15.03333333 31.76666667 -15.03333333 31.76666667 -14.875 28.125 C-14 26 -14 26 -12 25 C-11.7497843 22.08365871 -11.7497843 22.08365871 -12 19 C-12.99 18.34 -13.98 17.68 -15 17 C-14.43454163 13.04179141 -13.19097652 10.3340947 -11 7 C-9.01432292 7.29296875 -7.02864583 7.5859375 -5.04296875 7.87890625 C-2.7974658 8.13904799 -2.7974658 8.13904799 0 7 C0 4.69 0 2.38 0 0 Z " fill="#607D8C" transform="translate(68,52)"/>
<path d="M0 0 C11.22 0 22.44 0 34 0 C34 7.26 34 14.52 34 22 C22.78 22 11.56 22 0 22 C0 14.74 0 7.48 0 0 Z " fill="#90CAF9" transform="translate(18,38)"/>
<path d="M0 0 C3.3258409 2.062783 6.23502468 4.47004936 8 8 C8.79674298 14.71540516 8.79674298 14.71540516 6.73046875 18.046875 C3.40766769 21.95985727 1.56547947 23.81426515 -3.6875 24.4375 C-8.19692446 24.40458449 -10.42486187 22.5829862 -13.65234375 19.60546875 C-15.71006082 17.15410146 -16.0156376 14.88383497 -16.4375 11.75 C-15.8560227 6.76590888 -13.62718402 4.32648483 -10 1 C-6.7374887 -0.63125565 -3.5120384 -0.68851113 0 0 Z " fill="#475C66" transform="translate(78,62)"/>
<path d="M0 0 C11.22 0 22.44 0 34 0 C35 2 35 2 34 12 C22.78 12 11.56 12 0 12 C0 8.04 0 4.08 0 0 Z " fill="#90C9F8" transform="translate(18,66)"/>
<path d="M0 0 C6.6 0 13.2 0 20 0 C20 4.62 20 9.24 20 14 C16.7 14 13.4 14 10 14 C10 16.31 10 18.62 10 21 C7.8125 22.125 7.8125 22.125 5 23 C2.525 22.01 2.525 22.01 0 21 C0 14.07 0 7.14 0 0 Z " fill="#8FC9F8" transform="translate(58,38)"/>
<path d="M0 0 C1.0374939 0.00303635 1.0374939 0.00303635 2.09594727 0.00613403 C2.80243408 0.00517731 3.5089209 0.00422058 4.23681641 0.00323486 C5.7331552 0.00255321 7.22949694 0.00440649 8.72583008 0.00857544 C11.02374884 0.01392396 13.32147213 0.00863003 15.61938477 0.00222778 C17.06990603 0.00288857 18.52042718 0.00416974 19.97094727 0.00613403 C20.66260986 0.0041098 21.35427246 0.00208557 22.06689453 0 C26.91849503 0.0239943 26.91849503 0.0239943 28.03344727 1.13894653 C28.15844727 4.13894653 28.15844727 4.13894653 28.03344727 7.13894653 C26.35671077 8.81568303 24.30489651 8.2668247 22.06689453 8.27789307 C21.37523193 8.27586884 20.68356934 8.2738446 19.97094727 8.27175903 C19.26446045 8.27271576 18.55797363 8.27367249 17.83007812 8.2746582 C16.33373933 8.27533986 14.8373976 8.27348658 13.34106445 8.26931763 C11.04314569 8.26396911 8.7454224 8.26926304 6.44750977 8.27566528 C4.9969885 8.2750045 3.54646735 8.27372333 2.09594727 8.27175903 C1.05845337 8.27479538 1.05845337 8.27479538 0 8.27789307 C-4.8516005 8.25389877 -4.8516005 8.25389877 -5.96655273 7.13894653 C-6.09155273 4.13894653 -6.09155273 4.13894653 -5.96655273 1.13894653 C-4.28981624 -0.53778996 -2.23800198 0.01106836 0 0 Z " fill="#F9F9F9" transform="translate(49.966552734375,17.861053466796875)"/>
<path d="M0 0 C0.66 0.66 1.32 1.32 2 2 C1.8125 5.5 1.8125 5.5 1 9 C-2.22143276 11.14762184 -3.2595467 11.561068 -7 11 C-9.2855347 8.87208838 -9.92303658 7.52591672 -10.375 4.4375 C-10 2 -10 2 -8.9375 0.125 C-5.82785011 -1.68060316 -3.38260527 -0.79952488 0 0 Z " fill="#F1F2F3" transform="translate(78,69)"/>
<path d="M0 0 C2.625 0.375 2.625 0.375 5 1 C5.625 3.375 5.625 3.375 6 6 C5.34 6.66 4.68 7.32 4 8 C1.375 7.625 1.375 7.625 -1 7 C-1.625 4.625 -1.625 4.625 -2 2 C-1.34 1.34 -0.68 0.68 0 0 Z " fill="#F3E13D" transform="translate(32,18)"/>
<path d="M0 0 C2.625 0.375 2.625 0.375 5 1 C5.625 3.375 5.625 3.375 6 6 C5.34 6.66 4.68 7.32 4 8 C1.375 7.625 1.375 7.625 -1 7 C-1.625 4.625 -1.625 4.625 -2 2 C-1.34 1.34 -0.68 0.68 0 0 Z " fill="#86BC4B" transform="translate(20,18)"/>
</svg>
